<svg id="Layer_1" data-name="Layer 1" xmlns="http://www.w3.org/2000/svg" viewBox="0 0 345 170"><defs><style>.cls-1{fill:#e63029;}.cls-2{fill:#231f20;}</style></defs><title>Artboard 1</title><path class="cls-1" d="M273.08,87.19l-.17,83.29L345,128.7l.16-83.3Zm59.8-13.63-3.19,1.84a76,76,0,0,1-11.09,34.7c4.73,3.27,14,4.85,14,4.85l.12,1.5-7.7,12.92s-18.28-15.8-24.9-22.64c-4.62,3-4.86,6.47-4.22,9.82.95,5.36,5.88,10.94,8.44,14.7,0,1.53-1.57,6.92-1.57,6.92l-10.31,5.94a8.1,8.1,0,0,0-3.39,4.48l-4.57,1.17,1.25-7.21s.25-.71,3.12-2.37l3.36-1.94.23-1.19c-1.61-3.15-4.06-8.88-4.3-12.42a24.37,24.37,0,0,1,8.69-20.39,104.6,104.6,0,0,0-12-5.87s4.18-10.76,9-13.7c1.9,3.06,11.53,16,20.52,22.41,5.24-9.17,3.87-18.37,3.08-25.3l-6.11,2V76.25l6.59-5.19c.86,2.32,2.87,4.12,5.68,2.5l9.46-5.47.92.71Z"/><path class="cls-1" d="M270.66,0l-72.22,41.5,72.22,41.53,72.22-41.53ZM312,45.53l-3.21-1.82a75.94,75.94,0,0,1-35.52,8.07c-.41,5.74,3,14.56,3,14.56l-1.25.87-15-.06s4.33-23.77,6.86-32.95c-5-2.44-8-.9-10.61,1.34-4.14,3.54-6.44,10.64-8.38,14.75-1.31.77-6.75,2.15-6.75,2.15l-10.36-5.86a8.14,8.14,0,0,0-5.58-.64l-3.32-3.36L228.69,40s.73-.16,3.63,1.48l3.37,1.9,1.14-.4c1.9-3,5.6-8,8.52-10a24.4,24.4,0,0,1,22-2.88,104.49,104.49,0,0,0-1-13.28s11.39-1.85,16.39.83c-1.66,3.18-7.95,18.06-8.89,29.05,10.57-.13,17.8-6,23.37-10.19l-4.79-4.28,6.44-3.79,7.81,3c-1.55,1.92-2.07,4.56.75,6.15L316.9,43l-.15,1.15Z"/><path class="cls-1" d="M268.29,87.21,196.23,45.43l.15,83.3,72.06,41.79Zm-12,17.17L253,102.51c-.12,1.7-.81,16.56-11.32,21.07,4.83,8.6,14.34,20.82,14.34,20.82l.11,1.59-7.85,3.76s-18.64-36.31-25.42-50.58c-4.71-2.33-4.95.74-4.31,4.72,1,6.31,6,17.39,8.63,24,0,1.48-1.62,4.92-1.62,4.92l-10.52-6c-2.05-1.18-3.05-.26-3.45.47l-4.68-4.11,1.29-5.57s.25-.42,3.18,1.27l3.43,2,.23-.89c-1.64-4.93-4.14-13.31-4.38-17-.57-8.58,3-11.82,8.86-9.9-4.23-7.3-12.21-19.41-12.21-19.41s4.28-5.68,9.23-3c1.93,5.15,11.77,28.81,20.95,45.33,5.35-2.9,4-13.45,3.14-21.1l-6.24-5.1V82.45l6.72,2.5c.9,3.24,2.94,7.3,5.81,8.93l9.67,5.54.92,1.73Z"/><path class="cls-2" d="M136,39.12V59.3h-3.93V42.15h-8.81V58.09c0,.84-.41,1.21-1.28,1.21h-6.52v-3h3.86V42.15h-2.82v-3Z"/><path class="cls-2" d="M143.39,50.62V42.15h-2.76v-3h6.7v11.5Z"/><path class="cls-2" d="M169.12,56.27v3H151.6v-3h10.93V45.58c0-2.52-.91-3.43-3.47-3.43H151.6v-3h8.27c4.84,0,6.59,1.61,6.59,6.22V56.27Z"/><path class="cls-2" d="M17.5,97.07H13.56V79.92H.28v-3H17.5ZM4.35,84.86V97.07H.42V84.86Z"/><path class="cls-2" d="M24.9,88.4V79.92H22.14v-3h6.69V88.4Z"/><path class="cls-2" d="M50.56,83.82v6.26c0,4.87-2.18,7-7.16,7H34v-3h8.91c2.59,0,3.77-1.25,3.77-3.91V83.75c0-2.62-1.18-3.83-3.77-3.83H37.61v5.89h4.74v2.86H34V76.89H43.4C48.38,76.89,50.56,79,50.56,83.82Z"/><path class="cls-2" d="M64.72,84.6c0-3.27-1.28-4.68-4.24-4.68H54.23v-3h7c5.18,0,7.47,2.19,7.47,7.2v13H64.72Z"/><path class="cls-2" d="M80.23,97.07a16.35,16.35,0,0,1-1.11-4c-.74,2.73-2.39,4-5.38,4H72.29V93.61h1.24c3.57,0,4.81-1.41,4.81-5.72V82.31c0-1.75-.5-2.39-1.85-2.39H73.7v-3h3.94c3.36,0,4.64,1.42,4.64,5.25v7.6a19.52,19.52,0,0,0,1.44,7.33Z"/><path class="cls-2" d="M89.41,97.07V79.92H86.52v-3h6.86V97.07Z"/><path class="cls-2" d="M115.67,83.82v6.26c0,4.87-2.18,7-7.16,7H99.06v-3H108c2.59,0,3.77-1.25,3.77-3.91V83.75c0-2.62-1.18-3.83-3.77-3.83h-5.24v5.89h4.74v2.86H99.06V76.89h9.45C113.49,76.89,115.67,79,115.67,83.82Z"/><path class="cls-2" d="M122.37,88.4V79.92h-2.76v-3h6.69V88.4Z"/><path class="cls-2" d="M140.46,97.24c-6.32,0-9.25-2.39-9.25-7.87V76.89h3.94V88.77c0,3.8,1.75,5.44,5.31,5.44s5.28-1.64,5.28-5.44V79.92h-5.45v-3h9.42V89.37C149.71,94.85,146.75,97.24,140.46,97.24Z"/><path class="cls-2" d="M164.51,79.92H153.75V73.53h3.77v3.36h11.06v3l-7.23,17.15h-4.1Z"/><path class="cls-2" d="M96.1,114.67v20.17H92.17V117.69H83.35v15.94c0,.84-.4,1.21-1.27,1.21H75.55v-3h3.87V117.69H76.59v-3Z"/><path class="cls-2" d="M103.47,126.17v-8.48h-2.76v-3h6.69v11.5Z"/><path class="cls-2" d="M121.66,122.37c0-3.26-1.28-4.68-4.24-4.68h-6.25v-3h7c5.18,0,7.47,2.18,7.47,7.19v13h-3.94Z"/><path class="cls-2" d="M147.69,131.82v3H130.17v-3H141.1v-10.7c0-2.52-.91-3.43-3.46-3.43h-7.47v-3h8.28c4.84,0,6.59,1.61,6.59,6.22v10.93Z"/><path class="cls-2" d="M167.64,114.67v10.86c0,4.88-2.26,7.16-7.1,8.44l-9.95,2.62-.71-3,5.18-1.41-2.29-14.53h-2.92v-3h5.28c.64,0,1.07.37,1.17,1.24l2.43,15.34,1.41-.41c2.66-.7,3.56-2.25,3.56-5.38v-7.77h-3v-3Z"/></svg>